<?xml version="1.0" encoding="UTF-8"?>
<svg xmlns="http://www.w3.org/2000/svg" xmlns:xlink="http://www.w3.org/1999/xlink" width="250px" height="200px" viewBox="0 0 250 200" version="1.1">
<g id="surface1">
<path style=" stroke:none;fill-rule:evenodd;fill:rgb(100%,100%,100%);fill-opacity:1;" d="M 225 0 L 25 0 C 11.191406 0 0 14.925781 0 33.332031 L 0 166.667969 C 0 185.074219 11.191406 200 25 200 L 225 200 C 238.808594 200 250 185.074219 250 166.667969 L 250 33.332031 C 250 14.925781 238.808594 0 225 0 Z M 91.125 146.667969 L 87.5 128.832031 L 64.5 128.832031 L 60.875 146.667969 L 39.625 146.667969 L 62.5 51.167969 L 88.625 51.167969 L 112.5 146.667969 Z M 170.375 94.332031 C 169.476562 98.285156 167.941406 101.925781 165.875 105 C 163.527344 108.242188 160.664062 110.75 157.5 112.332031 C 153.5 114.304688 149.261719 115.265625 145 115.167969 L 139.5 115.167969 L 139.5 146.667969 L 120 146.667969 L 120 51.5 L 145 51.5 C 152.234375 50.804688 159.417969 53.582031 165.25 59.332031 C 170.003906 65.035156 172.539062 73.324219 172.125 81.832031 C 172.054688 86.097656 171.464844 90.320312 170.375 94.332031 Z M 202.625 146.667969 L 183.25 146.667969 L 183.25 51.5 L 202.625 51.5 Z M 80.625 92.167969 L 83.625 107.667969 L 68.5 107.667969 L 71.5 92.167969 C 71.5 90 72.5 87.5 73 84.332031 C 73.5 81.167969 74.125 78 74.625 74.832031 C 75.148438 72.199219 75.566406 69.527344 75.875 66.832031 C 75.875 69 76.75 71.667969 77.25 75.167969 L 79.125 84.832031 Z M 150.5 75.5 C 151.890625 77.410156 152.617188 80.007812 152.5 82.667969 C 152.570312 85.128906 152.089844 87.566406 151.125 89.667969 C 150.300781 91.3125 149.125 92.589844 147.75 93.332031 C 146.289062 94.152344 144.710938 94.550781 143.125 94.5 L 139.25 94.5 L 139.25 72.332031 L 144.25 72.332031 C 146.375 72.203125 148.449219 73.226562 150 75.167969 Z M 150.5 75.5 "/>
</g>
</svg>
