<svg width="24" height="24" viewBox="0 0 24 24" xmlns="http://www.w3.org/2000/svg">
  <path style="stroke:none;stroke-width:0;stroke-dasharray:none;stroke-linecap:butt;stroke-dashoffset:0;stroke-linejoin:miter;stroke-miterlimit:4;fill:#ff2b7f;fill-rule:nonzero;opacity:1" vector-effect="non-scaling-stroke" d="M5 0h14a5 5 0 0 1 5 5v14a5 5 0 0 1-5 5H5a5 5 0 0 1-5-5V5a5 5 0 0 1 5-5" transform="matrix(0.9999999999999999, 0, 0, 0.9999999999999999, 0, -2.220446049250313e-16)"/>
  <path style="stroke: none; stroke-width: 0; stroke-dasharray: none; stroke-linecap: butt; stroke-dashoffset: 0; stroke-linejoin: miter; stroke-miterlimit: 4; fill: rgb(255, 255, 255); fill-rule: nonzero; opacity: 1;" d="M 10.572 4.972 C 11.649 5.335 9.256 7.053 11.229 8.248 C 12.339 8.92 14.76 5.879 15.976 5.197 C 17.011 4.62 18.825 4.503 19.742 6.509 C 20.905 9.048 19.892 15.651 15.699 18.308 C 11.464 20.975 6.13 19.62 4.284 15.47 C 2.14 10.637 6.849 3.703 10.572 4.972 Z M 12.627 11.789 C 13.405 13.539 17.641 11.256 16.67 8.802 C 16.04 7.213 11.891 10.136 12.627 11.789 Z" transform="matrix(0.9999999999999999, 0, 0, 0.9999999999999999, 0, -2.220446049250313e-16)"/>
</svg>