<svg xmlns="http://www.w3.org/2000/svg" width="24" height="24" viewBox="0 0 24 24" xml:space="preserve">
  <path style="stroke:none;stroke-width:0;stroke-dasharray:none;stroke-linecap:butt;stroke-dashoffset:0;stroke-linejoin:miter;stroke-miterlimit:4;fill:#2b96ff;fill-rule:nonzero;opacity:1" vector-effect="non-scaling-stroke" d="M5 0h14a5 5 0 0 1 5 5v14a5 5 0 0 1-5 5H5a5 5 0 0 1-5-5V5a5 5 0 0 1 5-5"/>
  <path style="stroke:none;stroke-width:0;stroke-dasharray:none;stroke-linecap:butt;stroke-dashoffset:0;stroke-linejoin:miter;stroke-miterlimit:4;fill:#fff;fill-rule:nonzero;opacity:1" vector-effect="non-scaling-stroke" transform="matrix(.8 0 0 .8 2.4 2.4)" d="M17 4c.763 0 1.394.434 1.856.89.481.473.922 1.109 1.314 1.81.787 1.406 1.472 3.243 1.925 5.058.45 1.801.699 3.682.54 5.161C22.475 18.404 21.71 20 20 20c-1.476 0-2.652-.76-3.614-1.531l-.351-.289-.492-.415-.444-.368C14.08 16.572 13.175 16 12 16s-2.08.572-3.099 1.397l-.444.368-.492.415-.35.289C6.651 19.24 5.475 20 4 20c-1.711 0-2.476-1.596-2.635-3.081-.158-1.48.09-3.36.54-5.161.453-1.815 1.138-3.652 1.925-5.059.392-.7.833-1.336 1.314-1.81C5.606 4.434 6.237 4 7 4c.515 0 1.018.123 1.513.27l.592.181q.148.046.295.087c.865.248 1.75.462 2.6.462s1.735-.214 2.6-.462l.885-.267C15.983 4.124 16.49 4 17 4"/>
</svg>