<svg width="24" height="24" viewBox="0 0 24 24" fill="none" xmlns="http://www.w3.org/2000/svg">
<path d="M6.41092 11.6249L6.76652 10.9645C6.54453 10.845 6.27733 10.845 6.05534 10.9645L6.41092 11.6249ZM11.75 14.5L11.3944 15.1603C11.6164 15.2799 11.8836 15.2799 12.1056 15.1603L11.75 14.5ZM2 14L1.64443 13.3396C1.40149 13.4704 1.25 13.7241 1.25 14C1.25 14.2759 1.40149 14.5295 1.64443 14.6603L2 14ZM11.75 19.25L11.3944 19.9103C11.6164 20.0299 11.8836 20.0299 12.1056 19.9103L11.75 19.25ZM21.5 14L21.8556 14.6603C22.0985 14.5295 22.25 14.2759 22.25 14C22.25 13.7241 22.0985 13.4704 21.8556 13.3396L21.5 14ZM17.0891 11.6249L17.4447 10.9645C17.2227 10.845 16.9555 10.845 16.7335 10.9645L17.0891 11.6249ZM6.05532 12.2852L11.3944 15.1603L12.1056 13.8396L6.76652 10.9645L6.05532 12.2852ZM6.05534 10.9645L1.64443 13.3396L2.35557 14.6603L6.76649 12.2852L6.05534 10.9645ZM1.64443 14.6603L11.3944 19.9103L12.1056 18.5896L2.35557 13.3396L1.64443 14.6603ZM12.1056 19.9103L21.8556 14.6603L21.1444 13.3396L11.3944 18.5896L12.1056 19.9103ZM21.8556 13.3396L17.4447 10.9645L16.7335 12.2852L21.1444 14.6603L21.8556 13.3396ZM12.1056 15.1603L17.4447 12.2852L16.7335 10.9645L11.3944 13.8396L12.1056 15.1603Z" fill="white"/>
<path d="M11.75 4L2 9.25L11.75 14.5L21.5 9.25L11.75 4Z" stroke="white" stroke-width="1.5" stroke-linecap="round" stroke-linejoin="round"/>
</svg>
