<svg width="20" height="20" viewBox="0 0 20 20" fill="none" xmlns="http://www.w3.org/2000/svg">
<path d="M6.16716 9.99994L6.59252 9.38222C6.33638 9.20585 5.99797 9.20584 5.74183 9.38221L6.16716 9.99994ZM10.0003 12.6394L9.57498 13.2571C9.83112 13.4335 10.1695 13.4335 10.4257 13.2571L10.0003 12.6394ZM3.00049 12.1803L2.57516 11.5626C2.37189 11.7025 2.25049 11.9335 2.25049 12.1803C2.25049 12.4271 2.37189 12.6581 2.57516 12.798L3.00049 12.1803ZM10.0003 17L9.575 17.6177C9.83113 17.794 10.1695 17.794 10.4257 17.6177L10.0003 17ZM17.0002 12.1803L17.4255 12.798C17.6288 12.6581 17.7502 12.4271 17.7502 12.1803C17.7502 11.9335 17.6288 11.7025 17.4255 11.5626L17.0002 12.1803ZM13.8335 9.99994L14.2588 9.38221C14.0027 9.20584 13.6643 9.20585 13.4081 9.38222L13.8335 9.99994ZM5.74181 10.6177L9.57498 13.2571L10.4257 12.0217L6.59252 9.38222L5.74181 10.6177ZM5.74183 9.38221L2.57516 11.5626L3.42582 12.798L6.59249 10.6177L5.74183 9.38221ZM2.57516 12.798L9.575 17.6177L10.4257 16.3822L3.42582 11.5626L2.57516 12.798ZM10.4257 17.6177L17.4255 12.798L16.5748 11.5626L9.575 16.3822L10.4257 17.6177ZM17.4255 11.5626L14.2588 9.38221L13.4082 10.6177L16.5748 12.798L17.4255 11.5626ZM10.4257 13.2571L14.2589 10.6177L13.4081 9.38222L9.57498 12.0217L10.4257 13.2571Z" fill="white"/>
<path d="M9.99984 3L3 7.81965L9.99984 12.6393L16.9997 7.81965L9.99984 3Z" stroke="white" stroke-width="1.5" stroke-linecap="round" stroke-linejoin="round"/>
</svg>
