<svg width="20" height="20" viewBox="0 0 20 20" fill="none" xmlns="http://www.w3.org/2000/svg">
<path d="M5.61958 9.69214L6.03363 9.06679C5.78262 8.9006 5.45657 8.90059 5.20556 9.06677L5.61958 9.69214ZM10.0003 12.5926L9.58627 13.218C9.83728 13.3841 10.1633 13.3841 10.4144 13.218L10.0003 12.5926ZM2.00049 12.0881L1.58647 11.4628C1.37666 11.6017 1.25049 11.8365 1.25049 12.0881C1.25049 12.3398 1.37666 12.5746 1.58647 12.7135L2.00049 12.0881ZM10.0003 17.3844L9.58629 18.0098C9.83729 18.1759 10.1633 18.1759 10.4143 18.0098L10.0003 17.3844ZM18.0001 12.0881L18.4142 12.7135C18.624 12.5746 18.7501 12.3398 18.7501 12.0881C18.7501 11.8365 18.624 11.6017 18.4142 11.4628L18.0001 12.0881ZM14.381 9.69214L14.7951 9.06677C14.544 8.90059 14.218 8.9006 13.967 9.06678L14.381 9.69214ZM5.20554 10.3175L9.58627 13.218L10.4144 11.9672L6.03363 9.06679L5.20554 10.3175ZM5.20556 9.06677L1.58647 11.4628L2.41451 12.7135L6.0336 10.3175L5.20556 9.06677ZM1.58647 12.7135L9.58629 18.0098L10.4143 16.759L2.41451 11.4628L1.58647 12.7135ZM10.4143 18.0098L18.4142 12.7135L17.5861 11.4628L9.58629 16.759L10.4143 18.0098ZM18.4142 11.4628L14.7951 9.06677L13.967 10.3175L17.5861 12.7135L18.4142 11.4628ZM10.4144 13.218L14.7951 10.3175L13.967 9.06678L9.58627 11.9672L10.4144 13.218Z" fill="white"/>
<path d="M9.99982 2L2 7.29624L9.99982 12.5925L17.9996 7.29624L9.99982 2Z" stroke="white" stroke-width="1.5" stroke-linecap="round" stroke-linejoin="round"/>
</svg>
