<svg id="eIf952xUHz31" xmlns="http://www.w3.org/2000/svg" xmlns:xlink="http://www.w3.org/1999/xlink" viewBox="0 0 24 24" shape-rendering="geometricPrecision" text-rendering="geometricPrecision" width="24" height="24"><path width="24" height="24" rx="5" ry="5" fill="#ff9f2b" stroke-width="0" d="M5 0H19A5 5 0 0 1 24 5V19A5 5 0 0 1 19 24H5A5 5 0 0 1 0 19V5A5 5 0 0 1 5 0z"/><path d="M8.103 0.556L6.062 4.694 1.497 5.359c-0.819 0.118 -1.147 1.128 -0.553 1.706l3.303 3.219 -0.782 4.547c-0.141 0.822 0.725 1.438 1.45 1.053L9 13.738l4.085 2.147c0.725 0.381 1.591 -0.231 1.45 -1.053l-0.782 -4.547 3.303 -3.219c0.594 -0.578 0.265 -1.588 -0.553 -1.706L11.938 4.694 9.897 0.556c-0.365 -0.737 -1.425 -0.747 -1.794 0z" transform="translate(3 3)" fill="#fff" stroke-width="0" /></svg>
