<svg fill="white" xmlns="http://www.w3.org/2000/svg" viewBox="1.658 2.391 20 18.534" width="20" height="18.534"><path d="M9.158 19.679v-4.832c0 -0.438 0.353 -0.792 0.792 -0.792h3.407c0.438 0 0.792 0.353 0.792 0.792v4.832h4.148a0.65 0.65 0 0 0 0.65 -0.65v-6.884a1.816 1.816 0 0 1 -0.292 -0.213l-0.342 -0.308a0.388 0.388 0 0 0 -0.533 0l-0.142 0.125c-0.458 0.408 -1.041 0.633 -1.641 0.633h-0.192c-0.592 0 -1.174 -0.217 -1.633 -0.625l-0.158 -0.142a0.388 0.388 0 0 0 -0.533 0l-0.158 0.142c-0.458 0.408 -1.041 0.633 -1.633 0.633h-0.117c-0.592 0 -1.166 -0.217 -1.616 -0.617l-0.183 -0.158a0.388 0.388 0 0 0 -0.533 0l-0.15 0.133c-0.458 0.408 -1.041 0.633 -1.641 0.633h-0.15c-0.6 0 -1.174 -0.217 -1.633 -0.625l-0.167 -0.142a0.378 0.378 0 0 0 -0.525 0l-0.4 0.358a1.667 1.667 0 0 1 -0.2 0.152v6.903c0 0.358 0.29 0.65 0.65 0.65h4.132zm11.037 -7.326v6.677a1.899 1.899 0 0 1 -1.899 1.899H5.027a1.899 1.899 0 0 1 -1.899 -1.899V12.375c-0.828 -0.116 -1.466 -0.865 -1.466 -1.775v-1.958c0 -0.233 0.183 -0.417 0.417 -0.417h19.167c0.233 0 0.417 0.183 0.417 0.417v1.816c0 0.937 -0.63 1.718 -1.466 1.895zm0.592 -4.961H2.52c-0.292 0 -0.492 -0.3 -0.383 -0.575l1.516 -3.74c0.158 -0.408 0.542 -0.683 0.975 -0.683h14.053c0.433 0 0.817 0.275 0.975 0.692l1.516 3.732c0.117 0.275 -0.092 0.575 -0.383 0.575z"/></svg>