<svg fill="white" xmlns="http://www.w3.org/2000/svg" viewBox="1.989 2.869 24 22.241" width="24" height="22.241"><path d="M10.99 23.615v-5.798c0 -0.526 0.424 -0.95 0.95 -0.95h4.088c0.526 0 0.95 0.424 0.95 0.95v5.798h4.978a0.78 0.78 0 0 0 0.78 -0.78v-8.261a2.179 2.179 0 0 1 -0.35 -0.256l-0.41 -0.37a0.465 0.465 0 0 0 -0.64 0l-0.17 0.15c-0.55 0.49 -1.249 0.76 -1.969 0.76h-0.23c-0.71 0 -1.409 -0.26 -1.959 -0.75l-0.19 -0.17a0.465 0.465 0 0 0 -0.64 0l-0.19 0.17c-0.55 0.49 -1.249 0.76 -1.959 0.76h-0.14c-0.71 0 -1.399 -0.26 -1.939 -0.74l-0.22 -0.19a0.465 0.465 0 0 0 -0.64 0l-0.18 0.16c-0.55 0.49 -1.249 0.76 -1.969 0.76h-0.18c-0.72 0 -1.409 -0.26 -1.959 -0.75l-0.2 -0.17a0.453 0.453 0 0 0 -0.63 0l-0.48 0.43a2.001 2.001 0 0 1 -0.24 0.183v8.284c0 0.43 0.348 0.78 0.78 0.78h4.958zm13.244 -8.791v8.012a2.279 2.279 0 0 1 -2.279 2.279H6.032a2.279 2.279 0 0 1 -2.279 -2.279v-7.986c-0.993 -0.139 -1.759 -1.038 -1.759 -2.13v-2.349c0 -0.28 0.22 -0.5 0.5 -0.5h23c0.28 0 0.5 0.22 0.5 0.5v2.179c0 1.124 -0.756 2.062 -1.759 2.274zm0.71 -5.953H3.024c-0.35 0 -0.59 -0.36 -0.46 -0.69l1.819 -4.488c0.19 -0.49 0.65 -0.82 1.17 -0.82h16.863c0.52 0 0.98 0.33 1.17 0.83l1.819 4.478c0.14 0.33 -0.11 0.69 -0.46 0.69z"/></svg>