<?xml version="1.0" encoding="UTF-8"?>
<svg xmlns="http://www.w3.org/2000/svg" xmlns:xlink="http://www.w3.org/1999/xlink" width="24px" height="35px" viewBox="0 0 24 34" version="1.1">
<g id="surface1">
<path style=" stroke:none;fill-rule:nonzero;fill:#ff2b2b;fill-opacity:1;" d="M 12 33.628906 C 11.460938 33.628906 10.960938 33.351562 10.6875 32.902344 L 9.015625 30.164062 C 5.582031 24.539062 2.339844 19.222656 1.238281 17.070312 C 0.429688 15.46875 0.0234375 13.761719 0.0234375 11.980469 C 0.0234375 5.578125 5.394531 0.371094 12 0.371094 C 18.605469 0.371094 23.972656 5.578125 23.972656 11.980469 C 23.972656 13.757812 23.570312 15.46875 22.769531 17.058594 C 22.761719 17.078125 22.753906 17.09375 22.738281 17.117188 C 21.613281 19.296875 18.394531 24.574219 14.980469 30.164062 L 13.3125 32.902344 C 13.035156 33.351562 12.539062 33.628906 12 33.628906 Z M 12 33.628906 "/>
<path style=" stroke:none;fill-rule:nonzero;fill:rgb(100%,100%,100%);fill-opacity:1;" d="M 12 17.25 C 8.769531 17.25 6.140625 14.703125 6.140625 11.570312 C 6.140625 8.4375 8.769531 5.890625 12 5.890625 C 15.230469 5.890625 17.855469 8.4375 17.855469 11.570312 C 17.855469 14.703125 15.230469 17.25 12 17.25 Z M 12 17.25 "/>
</g>
</svg>