<svg fill="none" height="48" viewBox="0 0 49 48" width="49" xmlns="http://www.w3.org/2000/svg"><path clip-rule="evenodd" d="m10.623 0c-5.81353 0-10.5263203 4.69794-10.5263203 10.4931v26.8625c0 5.7952 4.7127903 10.4931 10.5263203 10.4931h26.9474c5.8135 0 10.5263-4.6979 10.5263-10.4931v-26.8625c0-5.79516-4.7128-10.4931-10.5263-10.4931zm22.6707 23.8644c1.5072-.3966 2.8482-1.5383 2.8482-3.8336 0-3.8215-3.2042-4.7107-7.3102-4.7107h-16.3531v17.2087h6.883v-5.8404h8.1647c1.2579 0 1.9937.5047 1.9937 1.7545v4.0859h6.883v-4.3022c0-2.3433-1.3054-3.8215-3.1093-4.3622zm-4.624-3.7364h-9.305v2.3463h9.305v-.0007c.0139.0005.0278.0007.0418.0007.6399 0 1.1586-.5252 1.1586-1.1731 0-.648-.5187-1.1732-1.1586-1.1732-.014 0-.0279.0003-.0418.0008z" fill="#fff" fill-rule="evenodd"/></svg>